# 3ds Max Wavefront OBJ Exporter v0.97b - (c)2007 guruware
# File Created: 17.08.2020 22:16:48

mtllib owner-semitintable.mtl

#
# object Owner_Alt_Tinted
#

v  0.312500 0.050010 -0.250000
v  -0.312500 0.050010 -0.250000
v  -0.437500 0.050010 -0.125000
v  -0.437500 0.050010 0.125000
v  -0.312500 0.050010 0.250000
v  0.312500 0.050010 0.250000
v  0.437500 0.050010 0.125000
v  0.437500 0.050010 -0.125000
v  0.312500 -0.050000 -0.250000
v  -0.312500 -0.050000 -0.250000
v  -0.437500 -0.050000 -0.125000
v  -0.437500 -0.050000 0.125000
v  -0.312500 -0.050000 0.250000
v  0.312500 -0.050000 0.250000
v  0.437500 -0.050000 0.125000
v  0.437500 -0.050000 -0.125000
v  0.312500 0.050010 -0.250000
v  0.312500 0.050010 -0.250000
v  -0.312500 0.050010 -0.250000
v  -0.312500 0.050010 -0.250000
v  -0.437500 0.050010 -0.125000
v  -0.437500 0.050010 -0.125000
v  -0.437500 0.050010 0.125000
v  -0.437500 0.050010 0.125000
v  -0.312500 0.050010 0.250000
v  -0.312500 0.050010 0.250000
v  0.312500 0.050010 0.250000
v  0.312500 0.050010 0.250000
v  0.437500 0.050010 0.125000
v  0.437500 0.050010 0.125000
v  0.437500 0.050010 -0.125000
v  0.437500 0.050010 -0.125000
v  0.312500 -0.050000 -0.250000
v  0.312500 -0.050000 -0.250000
v  -0.312500 -0.050000 -0.250000
v  -0.312500 -0.050000 -0.250000
v  -0.437500 -0.050000 -0.125000
v  -0.437500 -0.050000 -0.125000
v  -0.437500 -0.050000 0.125000
v  -0.437500 -0.050000 0.125000
v  -0.312500 -0.050000 0.250000
v  -0.312500 -0.050000 0.250000
v  0.312500 -0.050000 0.250000
v  0.312500 -0.050000 0.250000
v  0.437500 -0.050000 0.125000
v  0.437500 -0.050000 0.125000
v  0.437500 -0.050000 -0.125000
v  0.437500 -0.050000 -0.125000
v  0.291789 0.050010 0.200000
v  0.387500 0.050010 0.104289
v  0.387500 0.050010 -0.104289
v  0.291789 0.050010 -0.200000
v  -0.291789 0.050010 -0.200000
v  -0.387500 0.050010 -0.104289
v  -0.387500 0.050010 0.104289
v  -0.291789 0.050010 0.200000
v  0.387500 -0.050000 -0.104289
v  0.387500 -0.050000 0.104289
v  0.291789 -0.050000 0.200000
v  -0.291789 -0.050000 0.200000
v  -0.387500 -0.050000 0.104289
v  -0.387500 -0.050000 -0.104289
v  -0.291789 -0.050000 -0.200000
v  0.291789 -0.050000 -0.200000
# 64 vertices

vn 0.707107 0.000000 0.707107
vn 0.707107 0.000000 0.707107
vn 0.707107 0.000000 0.707107
vn 0.707107 0.000000 0.707107
vn 0.707107 0.000000 0.707107
vn 0.707107 0.000000 0.707107
vn 1.000000 0.000000 -0.000000
vn 1.000000 0.000000 -0.000000
vn 1.000000 0.000000 -0.000000
vn 1.000000 0.000000 -0.000000
vn 1.000000 0.000000 -0.000000
vn 1.000000 0.000000 -0.000000
vn -0.707107 0.000000 -0.707107
vn -0.707107 0.000000 -0.707107
vn -0.707107 0.000000 -0.707107
vn -0.707107 0.000000 -0.707107
vn -0.707107 0.000000 -0.707107
vn -0.707107 0.000000 -0.707107
vn -1.000000 0.000000 -0.000000
vn -1.000000 0.000000 -0.000000
vn -1.000000 0.000000 -0.000000
vn -1.000000 0.000000 -0.000000
vn -1.000000 0.000000 -0.000000
vn -1.000000 0.000000 -0.000000
vn -0.707107 0.000000 0.707107
vn -0.707107 0.000000 0.707107
vn -0.707107 0.000000 0.707107
vn -0.707107 0.000000 0.707107
vn -0.707107 0.000000 0.707107
vn -0.707107 0.000000 0.707107
vn 0.000000 0.000000 -1.000000
vn 0.000000 0.000000 -1.000000
vn 0.000000 0.000000 -1.000000
vn 0.000000 0.000000 -1.000000
vn 0.000000 0.000000 -1.000000
vn 0.000000 0.000000 -1.000000
vn 0.707107 0.000000 -0.707107
vn 0.707107 0.000000 -0.707107
vn 0.707107 0.000000 -0.707107
vn 0.707107 0.000000 -0.707107
vn 0.707107 0.000000 -0.707107
vn 0.707107 0.000000 -0.707107
vn 0.000000 0.000000 1.000000
vn 0.000000 0.000000 1.000000
vn 0.000000 0.000000 1.000000
vn 0.000000 0.000000 1.000000
vn 0.000000 0.000000 1.000000
vn 0.000000 0.000000 1.000000
vn 0.000000 1.000000 -0.000000
vn 0.000000 1.000000 -0.000000
vn 0.000000 1.000000 -0.000000
vn 0.000000 1.000000 -0.000000
vn 0.000000 1.000000 -0.000000
vn 0.000000 1.000000 -0.000000
vn 0.000000 1.000000 0.000000
vn 0.000000 1.000000 0.000000
vn 0.000000 1.000000 0.000000
vn -0.000000 1.000000 0.000000
vn -0.000000 1.000000 0.000000
vn -0.000000 1.000000 0.000000
vn 0.000000 1.000000 -0.000000
vn 0.000000 1.000000 -0.000000
vn 0.000000 1.000000 -0.000000
vn 0.000000 1.000000 -0.000000
vn 0.000000 1.000000 -0.000000
vn 0.000000 1.000000 -0.000000
vn 0.000000 1.000000 -0.000000
vn 0.000000 1.000000 -0.000000
vn 0.000000 1.000000 -0.000000
vn 0.000000 1.000000 -0.000000
vn 0.000000 1.000000 -0.000000
vn 0.000000 1.000000 -0.000000
vn -0.000000 1.000000 0.000000
vn -0.000000 1.000000 0.000000
vn -0.000000 1.000000 0.000000
vn -0.000000 1.000000 0.000000
vn -0.000000 1.000000 0.000000
vn -0.000000 1.000000 0.000000
vn -0.000000 1.000000 -0.000000
vn -0.000000 1.000000 -0.000000
vn -0.000000 1.000000 -0.000000
vn 0.000000 1.000000 -0.000000
vn 0.000000 1.000000 -0.000000
vn 0.000000 1.000000 -0.000000
vn 0.000000 1.000000 0.000000
vn 0.000000 1.000000 0.000000
vn 0.000000 1.000000 0.000000
vn 0.000000 1.000000 0.000000
vn 0.000000 1.000000 0.000000
vn 0.000000 1.000000 0.000000
vn -0.000000 1.000000 0.000000
vn -0.000000 1.000000 0.000000
vn -0.000000 1.000000 0.000000
vn -0.000000 1.000000 -0.000000
vn -0.000000 1.000000 -0.000000
vn -0.000000 1.000000 -0.000000
vn -0.000000 -1.000000 0.000000
vn -0.000000 -1.000000 0.000000
vn -0.000000 -1.000000 0.000000
vn 0.000000 -1.000000 0.000000
vn 0.000000 -1.000000 0.000000
vn 0.000000 -1.000000 0.000000
vn 0.000000 -1.000000 -0.000000
vn 0.000000 -1.000000 -0.000000
vn 0.000000 -1.000000 -0.000000
vn 0.000000 -1.000000 -0.000000
vn 0.000000 -1.000000 -0.000000
vn 0.000000 -1.000000 -0.000000
vn -0.000000 -1.000000 -0.000000
vn -0.000000 -1.000000 -0.000000
vn -0.000000 -1.000000 -0.000000
vn -0.000000 -1.000000 0.000000
vn -0.000000 -1.000000 0.000000
vn -0.000000 -1.000000 0.000000
vn 0.000000 -1.000000 0.000000
vn 0.000000 -1.000000 0.000000
vn 0.000000 -1.000000 0.000000
vn 0.000000 -1.000000 0.000000
vn 0.000000 -1.000000 0.000000
vn 0.000000 -1.000000 0.000000
vn 0.000000 -1.000000 -0.000000
vn 0.000000 -1.000000 -0.000000
vn 0.000000 -1.000000 -0.000000
vn -0.000000 -1.000000 -0.000000
vn -0.000000 -1.000000 -0.000000
vn -0.000000 -1.000000 -0.000000
vn -0.000000 -1.000000 0.000000
vn -0.000000 -1.000000 0.000000
vn -0.000000 -1.000000 0.000000
vn -0.000000 -1.000000 0.000000
vn -0.000000 -1.000000 0.000000
vn -0.000000 -1.000000 0.000000
vn 0.000000 -1.000000 -0.000000
vn 0.000000 -1.000000 -0.000000
vn 0.000000 -1.000000 -0.000000
vn 0.000000 -1.000000 -0.000000
vn 0.000000 -1.000000 -0.000000
vn 0.000000 -1.000000 -0.000000
vn 0.000000 -1.000000 -0.000000
vn 0.000000 -1.000000 -0.000000
vn 0.000000 -1.000000 -0.000000
vn 0.000000 -1.000000 -0.000000
vn 0.000000 -1.000000 -0.000000
vn 0.000000 -1.000000 -0.000000
# 144 vertex normals

vt 0.500682 0.039857 0.000000
vt 0.499318 0.039857 0.000000
vt 0.499318 0.022643 0.000000
vt 0.500682 0.022643 0.000000
vt 0.516746 0.039857 0.000000
vt 0.516746 0.022643 0.000000
vt 0.514997 0.039857 0.000000
vt 0.485003 0.039857 0.000000
vt 0.485003 0.022643 0.000000
vt 0.514997 0.022643 0.000000
vt 0.516746 0.039857 0.000000
vt 0.516746 0.022643 0.000000
vt 0.500682 0.039857 0.000000
vt 0.500682 0.022643 0.000000
vt 0.444930 0.039857 0.000000
vt 0.444930 0.022643 0.000000
vt 0.306348 0.967422 0.000000
vt 0.228887 0.889961 0.000000
vt 0.228887 0.735039 0.000000
vt 0.306348 0.657578 0.000000
vt 0.693652 0.657578 0.000000
vt 0.771113 0.735039 0.000000
vt 0.771113 0.889961 0.000000
vt 0.693652 0.967422 0.000000
vt 0.771113 0.735039 0.000000
vt 0.771113 0.889961 0.000000
vt 0.693652 0.967422 0.000000
vt 0.306348 0.967422 0.000000
vt 0.228887 0.889961 0.000000
vt 0.228887 0.735039 0.000000
vt 0.306348 0.657578 0.000000
vt 0.693652 0.657578 0.000000
vt 0.483254 0.039857 0.000000
vt 0.380081 0.039857 0.000000
vt 0.380081 0.022643 0.000000
vt 0.483254 0.022643 0.000000
vt 0.485004 0.039857 0.000000
vt 0.485004 0.022643 0.000000
vt 0.483254 0.039857 0.000000
vt 0.555070 0.039857 0.000000
vt 0.555070 0.022643 0.000000
vt 0.483254 0.022643 0.000000
vt 0.499318 0.039857 0.000000
vt 0.499318 0.022643 0.000000
vt 0.619919 0.039857 0.000000
vt 0.619919 0.022643 0.000000
vt 0.514997 0.039857 0.000000
vt 0.514997 0.022643 0.000000
vt 0.682584 0.687203 0.000000
vt 0.741204 0.747204 0.000000
vt 0.741204 0.877796 0.000000
vt 0.682584 0.937797 0.000000
vt 0.317417 0.937797 0.000000
vt 0.258797 0.877796 0.000000
vt 0.258797 0.747204 0.000000
vt 0.317417 0.687203 0.000000
vt 0.258797 0.877796 0.000000
vt 0.258797 0.747204 0.000000
vt 0.317417 0.687203 0.000000
vt 0.682584 0.687203 0.000000
vt 0.741204 0.747204 0.000000
vt 0.741204 0.877796 0.000000
vt 0.682584 0.937797 0.000000
vt 0.317417 0.937797 0.000000
# 64 texture coords

o Owner_Alt_Tinted
g Owner_Alt_Tinted
usemtl Material__26
s 2
f 44/3/1 15/4/2 7/1/3 
f 7/1/4 27/2/5 44/3/6 
s 4
f 46/36/7 16/6/8 31/5/9 
f 31/5/10 29/33/11 46/36/12 
s 2
f 36/9/13 11/10/14 3/7/15 
f 3/7/16 19/8/17 36/9/18 
s 4
f 38/42/19 12/12/20 4/11/21 
f 4/11/22 21/39/23 38/42/24 
s 2
f 40/44/25 13/14/26 5/13/27 
f 5/13/28 23/43/29 40/44/30 
s 4
f 34/16/31 10/41/32 2/40/33 
f 2/40/34 18/15/35 34/16/36 
s 2
f 48/38/37 9/48/38 17/47/39 
f 17/47/40 32/37/41 48/38/42 
s 4
f 42/46/43 14/35/44 6/34/45 
f 6/34/46 25/45/47 42/46/48 
s off
f 28/21/49 30/22/50 50/50/51 
f 50/50/52 49/49/53 28/21/54 
f 30/22/55 8/23/56 51/51/57 
f 51/51/58 50/50/59 30/22/60 
f 8/23/61 1/24/62 52/52/63 
f 52/52/64 51/51/65 8/23/66 
f 1/24/67 20/17/68 53/53/69 
f 53/53/70 52/52/71 1/24/72 
f 20/17/73 22/18/74 54/54/75 
f 54/54/76 53/53/77 20/17/78 
f 22/18/79 24/19/80 55/55/81 
f 55/55/82 54/54/83 22/18/84 
f 24/19/85 26/20/86 56/56/87 
f 56/56/88 55/55/89 24/19/90 
f 26/20/91 28/21/92 49/49/93 
f 49/49/94 56/56/95 26/20/96 
f 47/29/97 45/30/98 58/58/99 
f 58/58/100 57/57/101 47/29/102 
f 45/30/103 43/31/104 59/59/105 
f 59/59/106 58/58/107 45/30/108 
f 43/31/109 41/32/110 60/60/111 
f 60/60/112 59/59/113 43/31/114 
f 41/32/115 39/25/116 61/61/117 
f 61/61/118 60/60/119 41/32/120 
f 39/25/121 37/26/122 62/62/123 
f 62/62/124 61/61/125 39/25/126 
f 37/26/127 35/27/128 63/63/129 
f 63/63/130 62/62/131 37/26/132 
f 35/27/133 33/28/134 64/64/135 
f 64/64/136 63/63/137 35/27/138 
f 33/28/139 47/29/140 57/57/141 
f 57/57/142 64/64/143 33/28/144 
# 48 faces

#
# object Owner_Alt_Untinted
#

v  0.291789 0.050010 0.200000
v  0.387500 0.050010 0.104289
v  0.387500 0.050010 -0.104289
v  0.291789 0.050010 -0.200000
v  -0.291789 0.050010 -0.200000
v  -0.387500 0.050010 -0.104289
v  -0.387500 0.050010 0.104289
v  -0.291789 0.050010 0.200000
v  0.387500 -0.050000 -0.104289
v  0.387500 -0.050000 0.104289
v  0.291789 -0.050000 0.200000
v  -0.291789 -0.050000 0.200000
v  -0.387500 -0.050000 0.104289
v  -0.387500 -0.050000 -0.104289
v  -0.291789 -0.050000 -0.200000
v  0.291789 -0.050000 -0.200000
# 16 vertices

vn 0.000000 1.000000 0.000000
vn 0.000000 1.000000 0.000000
vn -0.000000 1.000000 0.000000
vn -0.000000 1.000000 0.000000
vn -0.000000 1.000000 0.000000
vn 0.000000 1.000000 0.000000
vn 0.000000 -1.000000 0.000000
vn -0.000000 -1.000000 -0.000000
vn -0.000000 -1.000000 0.000000
vn -0.000000 -1.000000 0.000000
vn 0.000000 -1.000000 0.000000
vn 0.000000 -1.000000 0.000000
vn -0.000000 1.000000 0.000000
vn -0.000000 1.000000 -0.000000
vn 0.000000 1.000000 0.000000
vn 0.000000 1.000000 0.000000
vn 0.000000 1.000000 0.000000
vn -0.000000 1.000000 0.000000
vn -0.000000 -1.000000 0.000000
vn 0.000000 -1.000000 0.000000
vn 0.000000 -1.000000 0.000000
vn 0.000000 -1.000000 0.000000
vn -0.000000 -1.000000 0.000000
vn -0.000000 -1.000000 0.000000
vn 0.000000 1.000000 0.000000
vn -0.000000 1.000000 0.000000
vn -0.000000 1.000000 0.000000
vn -0.000000 1.000000 0.000000
vn 0.000000 1.000000 0.000000
vn 0.000000 1.000000 0.000000
vn 0.000000 -1.000000 0.000000
vn 0.000000 -1.000000 0.000000
vn 0.000000 -1.000000 0.000000
vn 0.000000 -1.000000 0.000000
vn -0.000000 -1.000000 0.000000
vn 0.000000 -1.000000 0.000000
# 36 vertex normals

vt 0.682584 0.687203 0.000000
vt 0.741204 0.747204 0.000000
vt 0.741204 0.877796 0.000000
vt 0.682584 0.937797 0.000000
vt 0.317417 0.937797 0.000000
vt 0.258797 0.877796 0.000000
vt 0.258797 0.747204 0.000000
vt 0.317417 0.687203 0.000000
vt 0.258797 0.877796 0.000000
vt 0.258797 0.747204 0.000000
vt 0.317417 0.687203 0.000000
vt 0.682584 0.687203 0.000000
vt 0.741204 0.747204 0.000000
vt 0.741204 0.877796 0.000000
vt 0.682584 0.937797 0.000000
vt 0.317417 0.937797 0.000000
# 16 texture coords

o Owner_Alt_Untinted
g Owner_Alt_Untinted
usemtl Material__26
s 1
f 72/72/145 65/65/146 68/68/147 
f 68/68/148 69/69/149 72/72/150 
f 77/77/151 78/78/152 79/79/153 
f 79/79/154 76/76/155 77/77/156 
f 69/69/157 70/70/158 71/71/159 
f 71/71/160 72/72/161 69/69/162 
f 80/80/163 75/75/164 76/76/165 
f 76/76/166 79/79/167 80/80/168 
f 66/66/169 67/67/170 68/68/171 
f 68/68/172 65/65/173 66/66/174 
f 73/73/175 74/74/176 75/75/177 
f 75/75/178 80/80/179 73/73/180 
# 12 faces

