# 3ds Max Wavefront OBJ Exporter v0.97b - (c)2007 guruware
# File Created: 17.08.2020 22:15:10

mtllib command-semitintable.mtl

#
# object Command_Alt_Tinted
#

v  -0.478766 0.050010 0.204247
v  -0.416266 0.050010 0.312500
v  0.062500 -0.050000 -0.516747
v  -0.062500 0.050010 -0.516747
v  0.416266 0.050010 0.312500
v  0.478766 0.050010 0.204247
v  0.062500 0.050010 -0.516747
v  -0.062500 -0.050000 -0.516747
v  -0.478766 -0.050000 0.204247
v  -0.416266 -0.050000 0.312500
v  0.416266 -0.050000 0.312500
v  0.478766 -0.050000 0.204247
v  -0.387398 0.050010 0.262500
v  0.387398 0.050010 0.262500
v  0.421031 0.050010 0.204247
v  0.033633 0.050010 -0.466747
v  -0.033632 0.050010 -0.466747
v  -0.421031 0.050010 0.204247
v  -0.033632 -0.050000 -0.466747
v  0.033633 -0.050000 -0.466747
v  0.421031 -0.050000 0.204247
v  0.387398 -0.050000 0.262500
v  -0.387398 -0.050000 0.262500
v  -0.421031 -0.050000 0.204247
v  -0.478766 0.050010 0.204247
v  -0.478766 0.050010 0.204247
v  -0.416266 0.050010 0.312500
v  -0.416266 0.050010 0.312500
v  0.062500 -0.050000 -0.516747
v  0.062500 -0.050000 -0.516747
v  -0.062500 0.050010 -0.516747
v  -0.062500 0.050010 -0.516747
v  0.416266 0.050010 0.312500
v  0.416266 0.050010 0.312500
v  0.478766 0.050010 0.204247
v  0.478766 0.050010 0.204247
v  0.062500 0.050010 -0.516747
v  0.062500 0.050010 -0.516747
v  -0.062500 -0.050000 -0.516747
v  -0.062500 -0.050000 -0.516747
v  -0.478766 -0.050000 0.204247
v  -0.478766 -0.050000 0.204247
v  -0.416266 -0.050000 0.312500
v  -0.416266 -0.050000 0.312500
v  0.416266 -0.050000 0.312500
v  0.416266 -0.050000 0.312500
v  0.478766 -0.050000 0.204247
v  0.478766 -0.050000 0.204247
# 48 vertices

vn 0.866025 0.000000 -0.500000
vn 0.866025 0.000000 -0.500000
vn 0.866025 0.000000 -0.500000
vn 0.866025 0.000000 -0.500000
vn 0.866025 0.000000 -0.500000
vn 0.866025 0.000000 -0.500000
vn -0.000001 0.000000 -1.000000
vn -0.000001 0.000000 -1.000000
vn -0.000001 0.000000 -1.000000
vn -0.000001 0.000000 -1.000000
vn -0.000001 0.000000 -1.000000
vn -0.000001 0.000000 -1.000000
vn -0.866025 0.000000 -0.500000
vn -0.866025 0.000000 -0.500000
vn -0.866025 0.000000 -0.500000
vn -0.866025 0.000000 -0.500000
vn -0.866025 0.000000 -0.500000
vn -0.866025 0.000000 -0.500000
vn -0.866025 0.000000 0.500000
vn -0.866025 0.000000 0.500000
vn -0.866025 0.000000 0.500000
vn -0.866025 0.000000 0.500000
vn -0.866025 0.000000 0.500000
vn -0.866025 0.000000 0.500000
vn -0.000000 0.000000 1.000000
vn -0.000000 0.000000 1.000000
vn -0.000000 0.000000 1.000000
vn -0.000000 0.000000 1.000000
vn -0.000000 0.000000 1.000000
vn -0.000000 0.000000 1.000000
vn 0.866025 0.000000 0.500000
vn 0.866025 0.000000 0.500000
vn 0.866025 0.000000 0.500000
vn 0.866025 0.000000 0.500000
vn 0.866025 0.000000 0.500000
vn 0.866025 0.000000 0.500000
vn 0.000000 1.000000 -0.000000
vn 0.000000 1.000000 -0.000000
vn 0.000000 1.000000 -0.000000
vn 0.000000 1.000000 -0.000000
vn 0.000000 1.000000 -0.000000
vn 0.000000 1.000000 -0.000000
vn 0.000000 1.000000 -0.000000
vn 0.000000 1.000000 -0.000000
vn 0.000000 1.000000 -0.000000
vn 0.000000 1.000000 -0.000000
vn 0.000000 1.000000 -0.000000
vn 0.000000 1.000000 -0.000000
vn 0.000000 1.000000 -0.000000
vn 0.000000 1.000000 -0.000000
vn 0.000000 1.000000 -0.000000
vn 0.000000 1.000000 -0.000000
vn 0.000000 1.000000 -0.000000
vn 0.000000 1.000000 -0.000000
vn 0.000000 1.000000 -0.000000
vn 0.000000 1.000000 -0.000000
vn 0.000000 1.000000 -0.000000
vn 0.000000 1.000000 -0.000000
vn 0.000000 1.000000 -0.000000
vn 0.000000 1.000000 -0.000000
vn 0.000000 1.000000 -0.000000
vn 0.000000 1.000000 -0.000000
vn 0.000000 1.000000 -0.000000
vn 0.000000 1.000000 -0.000000
vn 0.000000 1.000000 -0.000000
vn 0.000000 1.000000 -0.000000
vn 0.000000 1.000000 -0.000000
vn 0.000000 1.000000 -0.000000
vn 0.000000 1.000000 -0.000000
vn 0.000000 1.000000 -0.000000
vn 0.000000 1.000000 -0.000000
vn 0.000000 1.000000 -0.000000
vn 0.000000 -1.000000 -0.000000
vn 0.000000 -1.000000 -0.000000
vn 0.000000 -1.000000 -0.000000
vn 0.000000 -1.000000 -0.000000
vn 0.000000 -1.000000 -0.000000
vn 0.000000 -1.000000 -0.000000
vn 0.000000 -1.000000 -0.000000
vn 0.000000 -1.000000 -0.000000
vn 0.000000 -1.000000 -0.000000
vn 0.000000 -1.000000 -0.000000
vn 0.000000 -1.000000 -0.000000
vn 0.000000 -1.000000 -0.000000
vn 0.000000 -1.000000 -0.000000
vn 0.000000 -1.000000 -0.000000
vn 0.000000 -1.000000 -0.000000
vn 0.000000 -1.000000 -0.000000
vn 0.000000 -1.000000 -0.000000
vn 0.000000 -1.000000 -0.000000
vn 0.000000 -1.000000 -0.000000
vn 0.000000 -1.000000 -0.000000
vn 0.000000 -1.000000 -0.000000
vn 0.000000 -1.000000 -0.000000
vn 0.000000 -1.000000 -0.000000
vn 0.000000 -1.000000 -0.000000
vn 0.000000 -1.000000 -0.000000
vn 0.000000 -1.000000 -0.000000
vn 0.000000 -1.000000 -0.000000
vn 0.000000 -1.000000 -0.000000
vn 0.000000 -1.000000 -0.000000
vn 0.000000 -1.000000 -0.000000
vn 0.000000 -1.000000 -0.000000
vn 0.000000 -1.000000 -0.000000
vn 0.000000 -1.000000 -0.000000
vn 0.000000 -1.000000 -0.000000
vn 0.000000 -1.000000 -0.000000
vn 0.000000 -1.000000 -0.000000
# 108 vertex normals

vt 0.338455 0.039857 0.000000
vt 0.385613 0.039857 0.000000
vt 0.385613 0.022643 0.000000
vt 0.338455 0.022643 0.000000
vt 0.661545 0.039857 0.000000
vt 0.661545 0.022643 0.000000
vt 0.614387 0.039857 0.000000
vt 0.614387 0.022643 0.000000
vt 0.509772 0.039857 0.000000
vt 0.509772 0.022643 0.000000
vt 0.574513 0.039857 0.000000
vt 0.574513 0.022643 0.000000
vt 0.609185 0.122646 0.000000
vt 0.351231 0.569437 0.000000
vt 0.273770 0.569437 0.000000
vt 0.015815 0.122646 0.000000
vt 0.054545 0.055563 0.000000
vt 0.648770 0.118063 0.000000
vt 0.726231 0.118063 0.000000
vt 0.984185 0.564854 0.000000
vt 0.945455 0.631937 0.000000
vt 0.429545 0.631937 0.000000
vt 0.614387 0.039857 0.000000
vt 0.614387 0.022643 0.000000
vt 0.509772 0.039857 0.000000
vt 0.509772 0.022643 0.000000
vt 0.385613 0.039857 0.000000
vt 0.385613 0.022643 0.000000
vt 0.490228 0.039857 0.000000
vt 0.490228 0.022643 0.000000
vt 0.425487 0.039857 0.000000
vt 0.425487 0.022643 0.000000
vt 0.490228 0.039857 0.000000
vt 0.490228 0.022643 0.000000
vt 0.570455 0.055563 0.000000
vt 0.390815 0.564854 0.000000
vt 0.065702 0.083537 0.000000
vt 0.559298 0.083537 0.000000
vt 0.579381 0.118321 0.000000
vt 0.332583 0.545788 0.000000
vt 0.292417 0.545788 0.000000
vt 0.045619 0.118321 0.000000
vt 0.667417 0.141712 0.000000
vt 0.707583 0.141712 0.000000
vt 0.954381 0.569178 0.000000
vt 0.934298 0.603963 0.000000
vt 0.440702 0.603963 0.000000
vt 0.420619 0.569178 0.000000
# 48 texture coords

o Command_Alt_Tinted
g Command_Alt_Tinted
usemtl Material__26
s 1
f 12/3/1 3/24/2 38/23/3 
f 38/23/4 35/2/5 12/3/6 
s 2
f 30/4/7 40/6/8 31/5/9 
f 31/5/10 7/1/11 30/4/12 
s 1
f 39/28/13 9/8/14 25/7/15 
f 25/7/16 32/27/17 39/28/18 
s 2
f 42/30/19 10/10/20 2/9/21 
f 2/9/22 26/29/23 42/30/24 
s 1
f 44/32/25 11/12/26 5/11/27 
f 5/11/28 27/31/29 44/32/30 
s 2
f 46/34/31 47/26/32 6/25/33 
f 6/25/34 33/33/35 46/34/36 
s 4
f 28/17/37 34/35/38 14/38/39 
f 14/38/40 13/37/41 28/17/42 
f 34/35/43 36/13/44 15/39/45 
f 15/39/46 14/38/47 34/35/48 
f 36/13/49 37/14/50 16/40/51 
f 16/40/52 15/39/53 36/13/54 
f 37/14/55 4/15/56 17/41/57 
f 17/41/58 16/40/59 37/14/60 
f 4/15/61 1/16/62 18/42/63 
f 18/42/64 17/41/65 4/15/66 
f 1/16/67 28/17/68 13/37/69 
f 13/37/70 18/42/71 1/16/72 
f 8/18/73 29/19/74 20/44/75 
f 20/44/76 19/43/77 8/18/78 
f 29/19/79 48/20/80 21/45/81 
f 21/45/82 20/44/83 29/19/84 
f 48/20/85 45/21/86 22/46/87 
f 22/46/88 21/45/89 48/20/90 
f 45/21/91 43/22/92 23/47/93 
f 23/47/94 22/46/95 45/21/96 
f 43/22/97 41/36/98 24/48/99 
f 24/48/100 23/47/101 43/22/102 
f 41/36/103 8/18/104 19/43/105 
f 19/43/106 24/48/107 41/36/108 
# 36 faces

#
# object Commant_Alt_Untinted
#

v  -0.000000 0.050010 -0.000000
v  -0.000000 -0.050000 -0.000000
v  -0.387398 0.050010 0.262500
v  0.387398 0.050010 0.262500
v  0.421031 0.050010 0.204247
v  0.033633 0.050010 -0.466747
v  -0.033632 0.050010 -0.466747
v  -0.421031 0.050010 0.204247
v  -0.033632 -0.050000 -0.466747
v  0.033633 -0.050000 -0.466747
v  0.421031 -0.050000 0.204247
v  0.387398 -0.050000 0.262500
v  -0.387398 -0.050000 0.262500
v  -0.421031 -0.050000 0.204247
# 14 vertices

vn 0.000000 1.000000 -0.000000
vn 0.000000 1.000000 -0.000000
vn 0.000000 1.000000 -0.000000
vn 0.000000 1.000000 -0.000000
vn 0.000000 1.000000 -0.000000
vn 0.000000 1.000000 -0.000000
vn 0.000000 1.000000 -0.000000
vn 0.000000 1.000000 -0.000000
vn 0.000000 1.000000 -0.000000
vn 0.000000 1.000000 -0.000000
vn 0.000000 1.000000 -0.000000
vn 0.000000 1.000000 -0.000000
vn 0.000000 1.000000 -0.000000
vn 0.000000 1.000000 -0.000000
vn 0.000000 1.000000 -0.000000
vn 0.000000 1.000000 -0.000000
vn 0.000000 1.000000 -0.000000
vn 0.000000 1.000000 -0.000000
vn 0.000000 -1.000000 -0.000000
vn 0.000000 -1.000000 -0.000000
vn 0.000000 -1.000000 -0.000000
vn 0.000000 -1.000000 -0.000000
vn 0.000000 -1.000000 -0.000000
vn 0.000000 -1.000000 -0.000000
vn 0.000000 -1.000000 -0.000000
vn 0.000000 -1.000000 -0.000000
vn 0.000000 -1.000000 -0.000000
vn 0.000000 -1.000000 -0.000000
vn 0.000000 -1.000000 -0.000000
vn 0.000000 -1.000000 -0.000000
vn 0.000000 -1.000000 -0.000000
vn 0.000000 -1.000000 -0.000000
vn 0.000000 -1.000000 -0.000000
vn 0.000000 -1.000000 -0.000000
vn 0.000000 -1.000000 -0.000000
vn 0.000000 -1.000000 -0.000000
# 36 vertex normals

vt 0.312500 0.249216 0.000000
vt 0.687500 0.438285 0.000000
vt 0.065702 0.083537 0.000000
vt 0.559298 0.083537 0.000000
vt 0.579381 0.118321 0.000000
vt 0.332583 0.545788 0.000000
vt 0.292417 0.545788 0.000000
vt 0.045619 0.118321 0.000000
vt 0.667417 0.141712 0.000000
vt 0.707583 0.141712 0.000000
vt 0.954381 0.569178 0.000000
vt 0.934298 0.603963 0.000000
vt 0.440702 0.603963 0.000000
vt 0.420619 0.569178 0.000000
# 14 texture coords

o Commant_Alt_Untinted
g Commant_Alt_Untinted
usemtl Material__26
s 4
f 53/53/109 54/54/110 49/49/111 
f 54/54/112 55/55/113 49/49/114 
f 55/55/115 56/56/116 49/49/117 
f 56/56/118 51/51/119 49/49/120 
f 51/51/121 52/52/122 49/49/123 
f 52/52/124 53/53/125 49/49/126 
f 57/57/127 58/58/128 50/50/129 
f 58/58/130 59/59/131 50/50/132 
f 59/59/133 60/60/134 50/50/135 
f 60/60/136 61/61/137 50/50/138 
f 61/61/139 62/62/140 50/50/141 
f 62/62/142 57/57/143 50/50/144 
# 12 faces

