# Blender v2.83.2 OBJ File: ''
# www.blender.org
mtllib boxtest.mtl
o Object.1
v -20.998953 -3.999795 -21.000011
v 18.999048 -3.999795 -21.000011
v -20.998953 -3.999808 19.000006
v -20.998949 0.999957 -21.000008
v -20.998949 0.999950 -0.999996
v -15.999200 0.999957 -21.000008
v -5.999703 0.999957 -21.000008
v 13.999303 0.999957 -21.000008
v -20.998949 0.999948 9.000004
v -20.998949 0.999948 14.000011
v -20.998949 0.999944 19.000006
v 18.999048 -3.999808 19.000006
v -0.999943 0.999944 19.000006
v 18.999048 0.999957 -16.000008
v 18.999048 0.999957 -21.000008
v 18.999048 0.999951 -6.000011
v 18.999048 0.999948 14.000011
v 8.999553 0.999944 19.000006
v 13.999303 0.999944 19.000006
v 18.999048 0.999944 19.000006
vt 0.500000 0.500000
vt 0.000000 0.500000
vt 0.500000 0.000000
vt 0.000000 0.500000
vt 0.062500 0.500000
vt 0.062500 1.000000
vt 0.000000 0.750000
vt 0.500000 0.250000
vt 0.562500 0.500000
vt 0.500000 0.500000
vt 0.687500 0.500000
vt 0.187500 0.937478
vt 0.187500 0.812484
vt 0.250000 0.999975
vt 0.187500 0.562497
vt 0.937500 0.500000
vt 0.500000 0.125000
vt 0.500000 0.062500
vt 0.000000 0.937500
vt 0.000000 0.875000
vt 0.000000 1.000000
vt 0.187500 0.999975
vt 0.125000 0.999975
vt 0.125000 0.500000
vt 0.187500 0.749987
vt 0.750000 0.000000
vt 1.000000 0.437500
vt 0.500000 0.000000
vt 1.000000 0.500000
vt 0.062500 1.000000
vt 0.062500 0.937500
vt 0.125000 1.000000
vt 0.187500 0.500000
vt 0.250000 0.500000
vt 0.062500 0.812500
vt 0.062500 0.562500
vt 1.000000 0.062500
vt 1.000000 0.312500
vt 0.875000 0.000000
vt 0.937500 0.000000
vt 0.187500 0.562497
vt 0.187500 0.624994
vt 0.187500 0.500000
vt 0.062500 0.500000
vt 1.000000 0.000000
vt 0.187500 0.999975
vt 0.000000 0.000000
vn 0.0000 -1.0000 -0.0000
vn -1.0000 0.0000 0.0000
vn 0.0000 1.0000 0.0000
vn 0.0000 0.0000 -1.0000
vn 0.0000 0.0000 1.0000
vn 1.0000 0.0000 0.0000
usemtl Green_0
s off
f 1/1/1 2/2/1 3/3/1
f 4/4/2 1/5/2 3/6/2
f 4/4/2 3/6/2 5/7/2
f 5/8/3 6/9/3 4/10/3
f 6/9/3 5/8/3 7/11/3
f 6/12/4 7/13/4 1/14/4
f 8/15/4 1/14/4 7/13/4
f 5/8/3 8/16/3 7/11/3
f 8/16/3 5/8/3 9/17/3
f 10/18/3 8/16/3 9/17/3
f 10/19/2 9/20/2 3/6/2
f 11/21/2 10/19/2 3/6/2
f 11/22/5 3/23/5 12/24/5
f 11/22/5 12/24/5 13/25/5
f 13/26/3 14/27/3 11/28/3
f 11/28/3 14/27/3 15/29/3
f 15/30/6 14/31/6 2/32/6
f 8/15/4 15/33/4 2/34/4
f 14/31/6 16/35/6 2/32/6
f 17/36/6 2/32/6 16/35/6
f 13/26/3 17/37/3 16/38/3
f 17/37/3 13/26/3 18/39/3
f 19/40/3 17/37/3 18/39/3
f 19/41/5 18/42/5 12/24/5
f 20/43/5 19/41/5 12/24/5
f 17/36/6 20/44/6 12/24/6
f 19/40/3 20/45/3 17/37/3
f 17/36/6 12/24/6 2/32/6
f 14/27/3 13/26/3 16/38/3
f 18/42/5 13/25/5 12/24/5
f 11/28/3 15/29/3 10/18/3
f 10/18/3 15/29/3 8/16/3
f 9/20/2 5/7/2 3/6/2
f 4/46/4 6/12/4 1/14/4
f 12/47/1 3/3/1 2/2/1
f 8/15/4 2/34/4 1/14/4
