# 3ds Max Wavefront OBJ Exporter v0.97b - (c)2007 guruware
# File Created: 15.08.2020 19:35:47

mtllib playercommand.mtl

#
# object CommandToken
#

v  -0.062500 0.050010 -0.516747
v  -0.478766 0.050010 0.204247
v  -0.416266 0.050010 0.312500
v  0.416266 0.050010 0.312500
v  0.478766 0.050010 0.204247
v  0.062500 0.050010 -0.516747
v  -0.062500 -0.050000 -0.516747
v  -0.478766 -0.050000 0.204247
v  -0.416266 -0.050000 0.312500
v  0.416266 -0.050000 0.312500
v  0.478766 -0.050000 0.204247
v  0.062500 -0.050000 -0.516747
v  -0.000000 0.050010 -0.000000
v  -0.000000 -0.050000 -0.000000
v  -0.062500 0.050010 -0.516747
v  -0.062500 0.050010 -0.516747
v  -0.478766 0.050010 0.204247
v  -0.478766 0.050010 0.204247
v  -0.416266 0.050010 0.312500
v  -0.416266 0.050010 0.312500
v  0.416266 0.050010 0.312500
v  0.416266 0.050010 0.312500
v  0.478766 0.050010 0.204247
v  0.478766 0.050010 0.204247
v  0.062500 0.050010 -0.516747
v  0.062500 0.050010 -0.516747
v  -0.062500 -0.050000 -0.516747
v  -0.062500 -0.050000 -0.516747
v  -0.478766 -0.050000 0.204247
v  -0.478766 -0.050000 0.204247
v  -0.416266 -0.050000 0.312500
v  -0.416266 -0.050000 0.312500
v  0.416266 -0.050000 0.312500
v  0.416266 -0.050000 0.312500
v  0.478766 -0.050000 0.204247
v  0.478766 -0.050000 0.204247
v  0.062500 -0.050000 -0.516747
v  0.062500 -0.050000 -0.516747
# 38 vertices

vn 0.866026 0.000000 -0.500000
vn 0.866026 0.000000 -0.500000
vn 0.866026 0.000000 -0.500000
vn 0.866026 0.000000 -0.500000
vn 0.866026 0.000000 -0.500000
vn 0.866026 0.000000 -0.500000
vn -0.000001 0.000000 -1.000000
vn -0.000001 0.000000 -1.000000
vn -0.000001 0.000000 -1.000000
vn -0.000001 0.000000 -1.000000
vn -0.000001 0.000000 -1.000000
vn -0.000001 0.000000 -1.000000
vn -0.866025 0.000000 -0.500000
vn -0.866025 0.000000 -0.500000
vn -0.866025 0.000000 -0.500000
vn -0.866025 0.000000 -0.500000
vn -0.866025 0.000000 -0.500000
vn -0.866025 0.000000 -0.500000
vn -0.866025 0.000000 0.500000
vn -0.866025 0.000000 0.500000
vn -0.866025 0.000000 0.500000
vn -0.866025 0.000000 0.500000
vn -0.866025 0.000000 0.500000
vn -0.866025 0.000000 0.500000
vn -0.000000 0.000000 1.000000
vn -0.000000 0.000000 1.000000
vn -0.000000 0.000000 1.000000
vn -0.000000 0.000000 1.000000
vn -0.000000 0.000000 1.000000
vn -0.000000 0.000000 1.000000
vn 0.866025 0.000000 0.500000
vn 0.866025 0.000000 0.500000
vn 0.866025 0.000000 0.500000
vn 0.866025 0.000000 0.500000
vn 0.866025 0.000000 0.500000
vn 0.866025 0.000000 0.500000
vn 0.000000 1.000000 0.000000
vn 0.000000 1.000000 -0.000000
vn -0.000000 1.000000 -0.000000
vn 0.000000 1.000000 -0.000000
vn -0.000000 1.000000 -0.000000
vn -0.000000 1.000000 -0.000000
vn -0.000000 1.000000 -0.000000
vn -0.000000 1.000000 0.000000
vn -0.000000 1.000000 -0.000000
vn -0.000000 1.000000 0.000000
vn -0.000000 1.000000 0.000000
vn -0.000000 1.000000 -0.000000
vn -0.000000 1.000000 0.000000
vn 0.000000 1.000000 0.000000
vn -0.000000 1.000000 -0.000000
vn 0.000000 1.000000 0.000000
vn 0.000000 1.000000 0.000000
vn -0.000000 1.000000 -0.000000
vn -0.000000 -1.000000 -0.000000
vn 0.000000 -1.000000 -0.000000
vn 0.000000 -1.000000 -0.000000
vn 0.000000 -1.000000 -0.000000
vn 0.000000 -1.000000 0.000000
vn 0.000000 -1.000000 -0.000000
vn 0.000000 -1.000000 0.000000
vn 0.000000 -1.000000 0.000000
vn 0.000000 -1.000000 -0.000000
vn 0.000000 -1.000000 0.000000
vn -0.000000 -1.000000 0.000000
vn 0.000000 -1.000000 -0.000000
vn -0.000000 -1.000000 0.000000
vn -0.000000 -1.000000 0.000000
vn 0.000000 -1.000000 -0.000000
vn -0.000000 -1.000000 0.000000
vn -0.000000 -1.000000 -0.000000
vn 0.000000 -1.000000 -0.000000
# 72 vertex normals

vt 0.338455 0.039857 0.000000
vt 0.385613 0.039857 0.000000
vt 0.385613 0.022643 0.000000
vt 0.338455 0.022643 0.000000
vt 0.661545 0.039857 0.000000
vt 0.661545 0.022643 0.000000
vt 0.614387 0.039857 0.000000
vt 0.614387 0.022643 0.000000
vt 0.509772 0.039857 0.000000
vt 0.509772 0.022643 0.000000
vt 0.574513 0.039857 0.000000
vt 0.574513 0.022643 0.000000
vt 0.609185 0.122646 0.000000
vt 0.351231 0.569437 0.000000
vt 0.312500 0.249215 0.000000
vt 0.273770 0.569437 0.000000
vt 0.015815 0.122646 0.000000
vt 0.054545 0.055563 0.000000
vt 0.648770 0.118063 0.000000
vt 0.726231 0.118063 0.000000
vt 0.687500 0.438285 0.000000
vt 0.984185 0.564854 0.000000
vt 0.945455 0.631937 0.000000
vt 0.429545 0.631937 0.000000
vt 0.614387 0.039857 0.000000
vt 0.614387 0.022643 0.000000
vt 0.509772 0.039857 0.000000
vt 0.509772 0.022643 0.000000
vt 0.385613 0.039857 0.000000
vt 0.385613 0.022643 0.000000
vt 0.490228 0.039857 0.000000
vt 0.490228 0.022643 0.000000
vt 0.425487 0.039857 0.000000
vt 0.425487 0.022643 0.000000
vt 0.490228 0.039857 0.000000
vt 0.490228 0.022643 0.000000
vt 0.570455 0.055563 0.000000
vt 0.390815 0.564854 0.000000
# 38 texture coords

o CommandToken
g CommandToken
usemtl Material__2
s 1
f 36/3/1 12/26/2 25/25/3 
f 25/25/4 23/2/5 36/3/6 
s 2
f 38/4/7 7/6/8 15/5/9 
f 15/5/10 26/1/11 38/4/12 
s 1
f 28/30/13 8/8/14 2/7/15 
f 2/7/16 16/29/17 28/30/18 
s 2
f 30/32/19 9/10/20 3/9/21 
f 3/9/22 17/31/23 30/32/24 
s 1
f 32/34/25 10/12/26 4/11/27 
f 4/11/28 19/33/29 32/34/30 
s 2
f 34/36/31 11/28/32 5/27/33 
f 5/27/34 21/35/35 34/36/36 
s 4
f 24/13/37 6/14/38 13/15/39 
f 6/14/40 1/16/41 13/15/42 
f 1/16/43 18/17/44 13/15/45 
f 18/17/46 20/18/47 13/15/48 
f 20/18/49 22/37/50 13/15/51 
f 22/37/52 24/13/53 13/15/54 
f 27/19/55 37/20/56 14/21/57 
f 37/20/58 35/22/59 14/21/60 
f 35/22/61 33/23/62 14/21/63 
f 33/23/64 31/24/65 14/21/66 
f 31/24/67 29/38/68 14/21/69 
f 29/38/70 27/19/71 14/21/72 
# 24 faces

