# Circle, with one point at y=-1 for bounds

v 150.000000 0.000000 0.000000
v 147.117792 0.000000 29.263548
v 138.581930 0.000000 57.402515
v 124.720442 0.000000 83.335535
v 106.066017 0.000000 106.066017
v 83.335535 0.000000 124.720442
v 57.402515 0.000000 138.581930
v 29.263548 0.000000 147.117792
v 0.000000 0.000000 150.000000
v -29.263548 0.000000 147.117792
v -57.402515 0.000000 138.581930
v -83.335535 0.000000 124.720442
v -106.066017 0.000000 106.066017
v -124.720442 0.000000 83.335535
v -138.581930 0.000000 57.402515
v -147.117792 0.000000 29.263548
v -150.000000 0.000000 0.000000
v -147.117792 0.000000 -29.263548
v -138.581930 0.000000 -57.402515
v -124.720442 0.000000 -83.335535
v -106.066017 0.000000 -106.066017
v -83.335535 0.000000 -124.720442
v -57.402515 0.000000 -138.581930
v -29.263548 0.000000 -147.117792
v -0.000000 0.000000 -150.000000
v 29.263548 0.000000 -147.117792
v 57.402515 0.000000 -138.581930
v 83.335535 0.000000 -124.720442
v 106.066017 0.000000 -106.066017
v 124.720442 0.000000 -83.335535
v 138.581930 0.000000 -57.402515
v 147.117792 0.000000 -29.263548
v 0 -1 0
v 1 -1 0
v 0 -1 1
# 35 vertices

vn 0.0 1.0 0.0
# 1 vertex normal

vt 1.000000 0.500000
vt 0.990393 0.597545
vt 0.961940 0.691342
vt 0.915735 0.777785
vt 0.853553 0.853553
vt 0.777785 0.915735
vt 0.691342 0.961940
vt 0.597545 0.990393
vt 0.500000 1.000000
vt 0.402455 0.990393
vt 0.308658 0.961940
vt 0.222215 0.915735
vt 0.146447 0.853553
vt 0.084265 0.777785
vt 0.038060 0.691342
vt 0.009607 0.597545
vt 0.000000 0.500000
vt 0.009607 0.402455
vt 0.038060 0.308658
vt 0.084265 0.222215
vt 0.146447 0.146447
vt 0.222215 0.084265
vt 0.308658 0.038060
vt 0.402455 0.009607
vt 0.500000 0.000000
vt 0.597545 0.009607
vt 0.691342 0.038060
vt 0.777785 0.084265
vt 0.853553 0.146447
vt 0.915735 0.222215
vt 0.961940 0.308658
vt 0.990393 0.402455
# 32 texture coords

f 32/32/1 2/2/1 1/1/1
f 2/2/1 32/32/1 31/31/1
f 31/31/1 3/3/1 2/2/1
f 3/3/1 31/31/1 30/30/1
f 30/30/1 4/4/1 3/3/1
f 4/4/1 30/30/1 29/29/1
f 29/29/1 5/5/1 4/4/1
f 5/5/1 29/29/1 28/28/1
f 28/28/1 6/6/1 5/5/1
f 6/6/1 28/28/1 27/27/1
f 27/27/1 7/7/1 6/6/1
f 7/7/1 27/27/1 26/26/1
f 26/26/1 8/8/1 7/7/1
f 8/8/1 26/26/1 25/25/1
f 25/25/1 9/9/1 8/8/1
f 9/9/1 25/25/1 24/24/1
f 24/24/1 10/10/1 9/9/1
f 10/10/1 24/24/1 23/23/1
f 23/23/1 11/11/1 10/10/1
f 11/11/1 23/23/1 22/22/1
f 22/22/1 12/12/1 11/11/1
f 12/12/1 22/22/1 21/21/1
f 21/21/1 13/13/1 12/12/1
f 13/13/1 21/21/1 20/20/1
f 20/20/1 14/14/1 13/13/1
f 14/14/1 20/20/1 19/19/1
f 19/19/1 15/15/1 14/14/1
f 15/15/1 19/19/1 18/18/1
f 18/18/1 16/16/1 15/15/1
f 16/16/1 18/18/1 17/17/1
f 33 35 34
# 31 faces

