# Blender v2.91.0 OBJ File: 'leaderSheet3.blend'
# www.blender.org
mtllib leaderSheet6.mtl
o Plane
v 0.411839 0.001848 4.152392
v 0.411839 0.011847 4.153850
v 0.131829 0.001848 -4.608185
v 0.131829 0.011847 -4.608185
v 0.131829 0.001848 4.611814
v 0.131829 0.011847 4.611814
v -3.756016 0.001848 -4.109244
v 3.753984 0.001848 -4.109244
v -3.756016 0.011847 -4.109244
v 3.753984 0.011847 -4.109244
v 0.411839 0.011847 -4.109244
v 0.411839 0.001848 -4.109244
v 0.131829 0.001848 -4.109244
v 0.131829 0.011847 -4.109244
v -3.756016 0.001848 4.147757
v -3.756016 0.011847 4.147757
v 0.411839 0.001848 4.147757
v 0.131829 0.001848 4.147757
v 3.753984 0.001848 4.147757
v 3.753984 0.011847 4.147757
v 0.411839 0.011847 4.147757
v 0.131829 0.011847 4.147757
v -3.507425 0.001848 -4.608185
v -3.507425 0.011847 -4.608185
v -3.507425 0.001848 4.611814
v -3.507425 0.011847 4.611814
v -3.507425 0.011847 -4.109244
v -3.507425 0.001848 -4.109244
v -3.507425 0.001848 4.147757
v -3.507425 0.011847 4.147757
v 0.413365 0.001848 -4.109244
v 0.411839 0.001848 4.152392
v 0.411839 0.011847 4.153850
v 0.131829 0.001848 4.611814
v 0.131829 0.001848 4.611814
v 0.411839 0.001848 4.147757
v 0.411839 0.001848 4.147757
v 0.411839 0.001848 -4.109244
v 0.131829 0.001848 -4.608185
v 0.131829 0.001848 -4.608185
v 0.411839 0.011847 -4.109244
v 0.411839 0.011847 -4.109244
v 0.131829 0.011847 -4.608185
v 0.131829 0.011847 -4.608185
v -3.507425 0.001848 -4.608185
v -3.507425 0.001848 -4.608185
v -3.756016 0.001848 -4.109244
v -3.507425 0.001848 4.611814
v -3.507425 0.001848 4.611814
v -3.507425 0.011847 4.611814
v -3.507425 0.011847 4.611814
v 0.131829 0.011847 4.611814
v 0.131829 0.011847 4.611814
v 3.753984 0.001848 4.147757
v 3.753984 0.001848 4.147757
v 3.753984 0.001848 -4.109244
v 3.753984 0.001848 -4.109244
v 3.753984 0.011847 4.147757
v 3.753984 0.011847 4.147757
v 3.753984 0.011847 -4.109244
v 3.753984 0.011847 -4.109244
v -3.507425 0.011847 -4.608185
v -3.507425 0.011847 -4.608185
v -3.756016 0.011847 -4.109244
v 0.413365 0.001848 -4.109244
v 0.413365 0.001848 -4.109244
v -3.756016 0.001848 4.147757
v -3.756016 0.011847 4.147757
v 0.411839 0.011847 4.147757
v 0.411839 0.011847 4.147757
vt 0.258021 0.946008
vt 0.276574 0.946008
vt 0.258021 1.000144
vt 0.740709 0.945268
vt 0.740709 0.999312
vt 0.722178 0.945268
vt 0.981550 0.945268
vt 0.981550 0.999312
vt 0.016696 0.945950
vt 0.016894 1.000144
vt 0.033101 0.000000
vt 0.517689 0.000000
vt 0.517689 0.000000
vt 0.033101 0.000000
vt 0.016696 0.050210
vt 0.258021 0.050102
vt 0.981550 0.050904
vt 0.740709 0.050904
vt 0.722178 0.050904
vt 0.276574 0.050102
vt 1.000000 0.050332
vt 1.000000 0.945885
vt 1.000000 0.945885
vt 1.000000 0.050332
vt 0.498016 0.050102
vt 0.498016 0.946008
vt 0.722077 0.945268
vt 0.500999 0.945268
vt 0.500999 0.050904
vt 0.258021 -0.000249
vt 0.740709 0.000640
vt 0.981550 0.000640
vt 0.016894 -0.000249
vt 0.000000 0.945885
vt 0.000000 0.050332
vt 0.000211 0.050217
vt 0.000211 0.945946
vt 0.722178 0.050904
vt 0.722178 0.050402
vt 0.276574 0.049441
vt 0.276574 0.050102
vt 0.517689 0.000000
vt 0.740709 0.000640
vt 0.280229 0.049445
vt 0.722178 0.050402
vt 0.722178 0.050904
vt 1.000000 0.050332
vt 0.498016 0.050102
vt 0.276574 0.050102
vt 0.998002 0.050904
vt 0.998002 0.945268
vt 0.000211 0.050217
vt 0.000211 0.945946
vt 0.517689 1.000000
vt 0.033101 1.000000
vt 0.033101 1.000000
vt 0.517689 1.000000
vt 0.033101 1.000000
vt 0.981550 0.999312
vt 0.258021 1.000144
vt 0.276574 0.946008
vt 0.722077 0.945268
vt 0.722178 0.945268
vt 0.517689 1.000000
vt 0.722077 0.945268
vt 0.276574 0.946008
vt 1.000000 0.945885
vt 0.500999 0.945268
vt 0.998002 0.050904
vt 0.033101 0.000000
vt 0.016894 -0.000249
vn 0.0000 1.0000 0.0000
vn 0.0000 -1.0000 0.0000
vn 0.0000 0.0000 1.0000
vn 1.0000 0.0000 0.0000
vn -1.0000 0.0000 0.0000
vn 0.8535 0.0000 0.5210
vn 0.0016 0.0000 1.0000
vn 0.0000 0.0000 -1.0000
vn -0.8951 0.0000 -0.4460
vn 0.8715 0.0000 -0.4904
vn -0.8815 0.0000 0.4722
usemtl Material.001
s off
f 14/1/1 41/2/1 43/3/1
f 13/4/2 39/5/2 38/6/2
f 28/7/2 45/8/2 39/5/2 13/4/2
f 27/9/1 14/1/1 43/3/1 62/10/1
f 48/11/3 35/12/3 52/13/3 50/14/3
f 30/15/1 22/16/1 14/1/1 27/9/1
f 29/17/2 28/7/2 13/4/2 18/18/2
f 18/18/2 13/4/2 38/6/2 36/19/2
f 22/16/1 69/20/1 41/2/1 14/1/1
f 54/21/4 56/22/4 60/23/4 58/24/4
f 69/20/1 59/25/1 61/26/1 41/2/1
f 65/27/2 57/28/2 19/29/2
f 53/30/1 69/20/1 22/16/1
f 34/31/2 18/18/2 36/19/2
f 49/32/2 29/17/2 18/18/2 34/31/2
f 51/33/1 53/30/1 22/16/1 30/15/1
f 7/34/5 67/35/5 68/36/5 9/37/5
f 37/38/6 32/39/6 33/40/6 70/41/6 6/42/6 5/43/6
f 2/44/7 1/45/7 17/46/7 55/47/7 20/48/7 21/49/7
f 15/50/2 47/51/2 28/7/2 29/17/2
f 16/52/1 30/15/1 27/9/1 64/53/1
f 64/53/1 27/9/1 62/10/1
f 47/51/2 45/8/2 28/7/2
f 40/54/8 46/55/8 63/56/8 44/57/8
f 9/37/9 24/58/9 23/59/9 7/34/9
f 4/60/10 42/61/10 66/62/10 12/63/10 3/64/10
f 31/65/8 11/66/8 10/67/8 8/68/8
f 68/36/11 67/69/11 25/70/11 26/71/11
f 16/52/1 51/33/1 30/15/1
f 49/32/2 15/50/2 29/17/2
f 19/29/2 36/19/2 65/27/2
f 36/19/2 38/6/2 65/27/2
