# Blender v3.2.0 OBJ File: 'TI4 Custom Punch.blend'
# www.blender.org
mtllib wormhole token.mtl
o wormhole_Curve
v 0.552159 0.050000 -0.032182
v 0.549161 0.050000 -0.062476
v 0.541811 0.050000 -0.091124
v 0.530463 0.050000 -0.117891
v 0.515469 0.050000 -0.142541
v 0.497183 0.050000 -0.164840
v 0.475958 0.050000 -0.184553
v 0.447840 0.050000 -0.252640
v 0.409060 0.050000 -0.315396
v 0.360244 0.050000 -0.372196
v 0.305328 0.050000 -0.420361
v 0.245472 0.050000 -0.460295
v 0.213912 0.050000 -0.477103
v 0.147971 0.050000 -0.504252
v 0.078854 0.050000 -0.522583
v 0.007268 0.050000 -0.531861
v -0.040519 0.050000 -0.533031
v -0.065750 0.050000 -0.530804
v -0.090432 0.050000 -0.525559
v -0.114251 0.050000 -0.517336
v -0.136894 0.050000 -0.506173
v -0.158048 0.050000 -0.492110
v -0.167968 0.050000 -0.484004
v -0.184353 0.050000 -0.468032
v -0.189504 0.050000 -0.461895
v -0.192923 0.050000 -0.456846
v -0.243878 0.050000 -0.436785
v -0.276639 0.050000 -0.420016
v -0.338381 0.050000 -0.378677
v -0.366968 0.050000 -0.354265
v -0.406353 0.050000 -0.313631
v -0.451382 0.050000 -0.254523
v -0.470603 0.050000 -0.223117
v -0.502315 0.050000 -0.157042
v -0.524853 0.050000 -0.087205
v -0.537984 0.050000 -0.014311
v -0.541474 0.050000 0.060934
v -0.538475 0.050000 0.091221
v -0.531125 0.050000 0.119823
v -0.519777 0.050000 0.146465
v -0.504784 0.050000 0.170874
v -0.486498 0.050000 0.192775
v -0.465273 0.050000 0.211893
v -0.437468 0.050000 0.279039
v -0.399001 0.050000 0.341795
v -0.349559 0.050000 0.399536
v -0.294642 0.050000 0.447701
v -0.234787 0.050000 0.487635
v -0.203227 0.050000 0.504443
v -0.137285 0.050000 0.531592
v -0.068168 0.050000 0.549923
v 0.003417 0.050000 0.559202
v 0.052616 0.050000 0.560371
v 0.077735 0.050000 0.558046
v 0.102111 0.050000 0.552585
v 0.125467 0.050000 0.544146
v 0.147530 0.050000 0.532885
v 0.168023 0.050000 0.518960
v 0.186674 0.050000 0.502527
v 0.203608 0.050000 0.484186
v 0.254563 0.050000 0.464125
v 0.287325 0.050000 0.447356
v 0.349066 0.050000 0.406017
v 0.377653 0.050000 0.381605
v 0.417038 0.050000 0.341294
v 0.462067 0.050000 0.282678
v 0.481289 0.050000 0.251449
v 0.513000 0.050000 0.185616
v 0.535539 0.050000 0.115903
v 0.548670 0.050000 0.043055
v 0.552159 -0.050000 -0.032182
v 0.549161 -0.050000 -0.062476
v 0.541811 -0.050000 -0.091124
v 0.530463 -0.050000 -0.117891
v 0.515469 -0.050000 -0.142541
v 0.497183 -0.050000 -0.164840
v 0.475958 -0.050000 -0.184553
v 0.447840 -0.050000 -0.252640
v 0.409060 -0.050000 -0.315396
v 0.360244 -0.050000 -0.372196
v 0.305328 -0.050000 -0.420361
v 0.245472 -0.050000 -0.460295
v 0.213912 -0.050000 -0.477103
v 0.147971 -0.050000 -0.504252
v 0.078854 -0.050000 -0.522583
v 0.007268 -0.050000 -0.531861
v -0.040519 -0.050000 -0.533031
v -0.065750 -0.050000 -0.530804
v -0.090432 -0.050000 -0.525559
v -0.114251 -0.050000 -0.517336
v -0.136894 -0.050000 -0.506173
v -0.158048 -0.050000 -0.492110
v -0.167968 -0.050000 -0.484004
v -0.184353 -0.050000 -0.468032
v -0.189504 -0.050000 -0.461895
v -0.192923 -0.050000 -0.456846
v -0.243878 -0.050000 -0.436785
v -0.276639 -0.050000 -0.420016
v -0.338381 -0.050000 -0.378677
v -0.366968 -0.050000 -0.354265
v -0.406353 -0.050000 -0.313631
v -0.451382 -0.050000 -0.254523
v -0.470603 -0.050000 -0.223117
v -0.502315 -0.050000 -0.157042
v -0.524853 -0.050000 -0.087205
v -0.537984 -0.050000 -0.014311
v -0.541474 -0.050000 0.060934
v -0.538475 -0.050000 0.091221
v -0.531125 -0.050000 0.119823
v -0.519777 -0.050000 0.146465
v -0.504784 -0.050000 0.170874
v -0.486498 -0.050000 0.192775
v -0.465273 -0.050000 0.211893
v -0.437468 -0.050000 0.279039
v -0.399001 -0.050000 0.341795
v -0.349559 -0.050000 0.399536
v -0.294642 -0.050000 0.447701
v -0.234787 -0.050000 0.487635
v -0.203227 -0.050000 0.504443
v -0.137285 -0.050000 0.531592
v -0.068168 -0.050000 0.549923
v 0.003417 -0.050000 0.559202
v 0.052616 -0.050000 0.560371
v 0.077735 -0.050000 0.558046
v 0.102111 -0.050000 0.552585
v 0.125467 -0.050000 0.544146
v 0.147530 -0.050000 0.532885
v 0.168023 -0.050000 0.518960
v 0.186674 -0.050000 0.502527
v 0.203608 -0.050000 0.484186
v 0.254563 -0.050000 0.464125
v 0.287325 -0.050000 0.447356
v 0.349066 -0.050000 0.406017
v 0.377653 -0.050000 0.381605
v 0.417038 -0.050000 0.341294
v 0.462067 -0.050000 0.282678
v 0.481289 -0.050000 0.251449
v 0.513000 -0.050000 0.185616
v 0.535539 -0.050000 0.115903
v 0.548670 -0.050000 0.043055
vt 0.035581 0.320610
vt 0.340158 0.072630
vt 0.464174 0.681657
vt 0.594277 0.141941
vt 0.660512 0.070751
vt 0.536496 0.679777
vt 0.183246 0.000000
vt 0.251309 0.000000
vt 0.251309 0.000000
vt 0.261780 0.000000
vt 0.261780 0.000000
vt 0.272251 0.000000
vt 0.272251 0.000000
vt 0.172775 0.000000
vt 0.183246 0.000000
vt 0.282723 0.000000
vt 0.282723 0.000000
vt 0.162304 0.000000
vt 0.172775 0.000000
vt 0.293194 0.000000
vt 0.293194 0.000000
vt 0.303665 0.000000
vt 0.303665 0.000000
vt 0.308901 0.000000
vt 0.308901 0.000000
vt 0.151832 0.000000
vt 0.162304 0.000000
vt 0.146597 0.000000
vt 0.151832 0.000000
vt 0.340314 0.000000
vt 0.340314 0.000000
vt 0.361257 0.000000
vt 0.361257 0.000000
vt 0.376963 0.000000
vt 0.376963 0.000000
vt 0.392670 0.000000
vt 0.392670 0.000000
vt 0.136126 0.000000
vt 0.146597 0.000000
vt 0.403141 0.000000
vt 0.403141 0.000000
vt 0.125654 0.000000
vt 0.136126 0.000000
vt 0.424084 0.000000
vt 0.424084 0.000000
vt 0.434555 0.000000
vt 0.434555 0.000000
vt 0.445026 0.000000
vt 0.445026 0.000000
vt 0.104712 0.000000
vt 0.125654 0.000000
vt 0.455497 0.000000
vt 0.455497 0.000000
vt 0.083770 0.000000
vt 0.104712 0.000000
vt 0.460733 0.000000
vt 0.460733 0.000000
vt 0.062827 0.000000
vt 0.083770 0.000000
vt 0.471204 0.000000
vt 0.471204 0.000000
vt 0.052356 0.000000
vt 0.062827 0.000000
vt 0.041885 0.000000
vt 0.052356 0.000000
vt 0.031414 0.000000
vt 0.041885 0.000000
vt 0.481675 0.000000
vt 0.481675 0.000000
vt 0.020942 0.000000
vt 0.031414 0.000000
vt 0.010471 0.000000
vt 0.020942 0.000000
vt 0.492147 0.000000
vt 0.492147 0.000000
vt 0.000000 0.000000
vt 0.010471 0.000000
vt 0.994764 0.000000
vt 0.000000 0.000000
vt 0.502618 0.000000
vt 0.502618 0.000000
vt 0.513089 0.000000
vt 0.513089 0.000000
vt 0.984293 0.000000
vt 0.994764 0.000000
vt 0.523560 0.000000
vt 0.523560 0.000000
vt 0.534031 0.000000
vt 0.534031 0.000000
vt 0.973822 0.000000
vt 0.984293 0.000000
vt 0.544503 0.000000
vt 0.544503 0.000000
vt 0.554974 0.000000
vt 0.554974 0.000000
vt 0.565445 0.000000
vt 0.565445 0.000000
vt 0.963351 0.000000
vt 0.973822 0.000000
vt 0.958115 0.000000
vt 0.963351 0.000000
vt 0.586387 0.000000
vt 0.586387 0.000000
vt 0.947644 0.000000
vt 0.958115 0.000000
vt 0.607330 0.000000
vt 0.607330 0.000000
vt 0.937173 0.000000
vt 0.947644 0.000000
vt 0.628272 0.000000
vt 0.628272 0.000000
vt 0.926702 0.000000
vt 0.937173 0.000000
vt 0.638743 0.000000
vt 0.638743 0.000000
vt 0.905759 0.000000
vt 0.926702 0.000000
vt 0.895288 0.000000
vt 0.905759 0.000000
vt 0.649215 0.000000
vt 0.649215 0.000000
vt 0.879581 0.000000
vt 0.895288 0.000000
vt 0.654450 0.000000
vt 0.654450 0.000000
vt 0.816754 0.000000
vt 0.879581 0.000000
vt 0.806283 0.000000
vt 0.816754 0.000000
vt 0.664921 0.000000
vt 0.664921 0.000000
vt 0.795812 0.000000
vt 0.806283 0.000000
vt 0.785340 0.000000
vt 0.795812 0.000000
vt 0.675393 0.000000
vt 0.675393 0.000000
vt 0.774869 0.000000
vt 0.785340 0.000000
vt 0.764398 0.000000
vt 0.774869 0.000000
vt 0.685864 0.000000
vt 0.685864 0.000000
vt 0.753927 0.000000
vt 0.764398 0.000000
vt 0.753927 0.000000
vt 0.314824 0.972809
vt 0.283351 0.989503
vt 0.159597 0.929636
vt 0.250754 0.997953
vt 0.228994 0.999018
vt 0.217505 0.996990
vt 0.206266 0.992213
vt 0.195420 0.984725
vt 0.185109 0.974559
vt 0.175477 0.961752
vt 0.170960 0.954369
vt 0.163499 0.939823
vt 0.161153 0.934234
vt 0.136394 0.911366
vt 0.121476 0.896094
vt 0.093362 0.858447
vt 0.080344 0.836215
vt 0.062410 0.799209
vt 0.041906 0.745378
vt 0.033154 0.716777
vt 0.018714 0.656602
vt 0.008451 0.593001
vt 0.002471 0.526616
vt 0.000882 0.458090
vt 0.002248 0.430507
vt 0.005595 0.404459
vt 0.010762 0.380195
vt 0.017590 0.357966
vt 0.025916 0.338021
vt 0.048242 0.259459
vt 0.065758 0.202307
vt 0.088272 0.149722
vt 0.113278 0.105858
vt 0.140534 0.069489
vt 0.154905 0.054182
vt 0.184931 0.029457
vt 0.216404 0.012763
vt 0.249001 0.004313
vt 0.271404 0.003248
vt 0.282842 0.005365
vt 0.293941 0.010338
vt 0.304577 0.018024
vt 0.314623 0.028279
vt 0.323955 0.040961
vt 0.332447 0.055927
vt 0.363361 0.090900
vt 0.378279 0.106172
vt 0.344850 0.948084
vt 0.386477 0.896408
vt 0.359221 0.932777
vt 0.433712 0.800816
vt 0.411484 0.852544
vt 0.451371 0.743664
vt 0.482166 0.643396
vt 0.473839 0.663704
vt 0.494160 0.596570
vt 0.488993 0.620947
vt 0.498873 0.542891
vt 0.497507 0.570480
vt 0.491304 0.408028
vt 0.497283 0.474372
vt 0.466602 0.284586
vt 0.481041 0.344540
vt 0.437345 0.202763
vt 0.457849 0.256146
vt 0.406393 0.143820
vt 0.419411 0.166052
vt 0.751670 0.002434
vt 0.784266 0.010884
vt 0.815739 0.027578
vt 0.845766 0.052303
vt 0.860137 0.067610
vt 0.887392 0.103979
vt 0.912399 0.147843
vt 0.934627 0.199571
vt 0.965089 0.318730
vt 0.952286 0.256723
vt 0.974754 0.336684
vt 0.983081 0.356991
vt 0.729909 0.001369
vt 0.707182 0.008174
vt 0.718420 0.003397
vt 0.686025 0.025829
vt 0.696335 0.015663
vt 0.671875 0.046018
vt 0.676392 0.038636
vt 0.662068 0.066153
vt 0.664414 0.060564
vt 0.622391 0.104293
vt 0.637309 0.089021
vt 0.998423 0.429907
vt 0.989908 0.379441
vt 0.995076 0.403817
vt 0.999788 0.457496
vt 0.998199 0.526015
vt 0.992220 0.592359
vt 0.981957 0.655847
vt 0.967517 0.715801
vt 0.958764 0.744242
vt 0.938260 0.797624
vt 0.920326 0.834335
vt 0.907309 0.856568
vt 0.841074 0.927757
vt 0.879194 0.894215
vt 0.864277 0.909487
vt 0.833363 0.944460
vt 0.783757 0.995022
vt 0.824870 0.959426
vt 0.815538 0.972108
vt 0.805492 0.982363
vt 0.794856 0.990049
vt 0.772319 0.997139
vt 0.749916 0.996074
vt 0.717319 0.987625
vt 0.685847 0.970930
vt 0.655820 0.946205
vt 0.641449 0.930898
vt 0.614194 0.894529
vt 0.589187 0.850665
vt 0.566673 0.798080
vt 0.549158 0.740928
vt 0.526831 0.662366
vt 0.511678 0.620192
vt 0.518505 0.642421
vt 0.563326 0.201178
vt 0.581260 0.164173
vt 0.534069 0.283610
vt 0.542822 0.255009
vt 0.509366 0.407386
vt 0.519629 0.343785
vt 0.501798 0.542297
vt 0.503387 0.473771
vt 0.506510 0.595929
vt 0.503163 0.569880
vn 0.0000 1.0000 0.0000
vn 0.0000 -1.0000 -0.0000
vn 0.0245 0.0000 -0.9997
vn -0.0879 0.0000 -0.9961
vn -0.2079 0.0000 -0.9782
vn 0.1285 0.0000 -0.9917
vn -0.3263 0.0000 -0.9453
vn 0.2564 0.0000 -0.9666
vn -0.4422 0.0000 -0.8969
vn -0.5536 0.0000 -0.8328
vn -0.6327 0.0000 -0.7744
vn 0.3807 0.0000 -0.9247
vn 0.4701 0.0000 -0.8826
vn -0.6980 0.0000 -0.7161
vn -0.7659 0.0000 -0.6430
vn -0.8281 0.0000 -0.5606
vn -0.3663 0.0000 -0.9305
vn 0.5550 0.0000 -0.8319
vn -0.4556 0.0000 -0.8902
vn 0.6594 0.0000 -0.7518
vn -0.5564 0.0000 -0.8309
vn -0.6494 0.0000 -0.7605
vn -0.7181 0.0000 -0.6960
vn 0.7584 0.0000 -0.6518
vn -0.7955 0.0000 -0.6060
vn 0.8507 0.0000 -0.5257
vn -0.8529 0.0000 -0.5220
vn 0.9243 0.0000 -0.3817
vn -0.9015 0.0000 -0.4327
vn 0.6805 0.0000 -0.7327
vn 0.7733 0.0000 -0.6341
vn 0.8544 0.0000 -0.5197
vn -0.9517 0.0000 -0.3071
vn 0.9207 0.0000 -0.3903
vn 0.9686 0.0000 -0.2485
vn -0.9842 0.0000 -0.1773
vn 0.9951 0.0000 -0.0985
vn 0.9989 0.0000 0.0463
vn -0.9989 0.0000 -0.0463
vn -0.9951 0.0000 0.0985
vn 0.9841 0.0000 0.1774
vn -0.9685 0.0000 0.2489
vn -0.9200 0.0000 0.3919
vn 0.9515 0.0000 0.3076
vn -0.8521 0.0000 0.5234
vn -0.7676 0.0000 0.6409
vn -0.6693 0.0000 0.7430
vn 0.9009 0.0000 0.4340
vn 0.8516 0.0000 0.5242
vn -0.9239 0.0000 0.3826
vn 0.7930 0.0000 0.6092
vn -0.8526 0.0000 0.5226
vn 0.7153 0.0000 0.6988
vn -0.7596 0.0000 0.6504
vn 0.6494 0.0000 0.7605
vn -0.6594 0.0000 0.7518
vn 0.5564 0.0000 0.8309
vn 0.4556 0.0000 0.8902
vn -0.5550 0.0000 0.8319
vn 0.3663 0.0000 0.9305
vn -0.4701 0.0000 0.8826
vn 0.7347 0.0000 0.6784
vn 0.6611 0.0000 0.7503
vn -0.3807 0.0000 0.9247
vn 0.5620 0.0000 0.8271
vn 0.4546 0.0000 0.8907
vn -0.2564 0.0000 0.9666
vn 0.3398 0.0000 0.9405
vn 0.2186 0.0000 0.9758
vn -0.1285 0.0000 0.9917
vn 0.0922 0.0000 0.9957
vn -0.0238 0.0000 0.9997
usemtl Material.003
s off
f 43/1/1 60/2/1 7/3/1
f 99/4/2 96/5/2 113/6/2
f 16/7/3 87/8/3 17/9/3
f 17/9/4 88/10/4 18/11/4
f 18/11/5 89/12/5 19/13/5
f 15/14/6 86/15/6 16/7/6
f 19/13/7 90/16/7 20/17/7
f 14/18/8 85/19/8 15/14/8
f 20/17/9 91/20/9 21/21/9
f 21/21/10 92/22/10 22/23/10
f 22/23/11 93/24/11 23/25/11
f 13/26/12 84/27/12 14/18/12
f 12/28/13 83/29/13 13/26/13
f 23/25/14 94/30/14 24/31/14
f 24/31/15 95/32/15 25/33/15
f 26/34/16 95/32/16 96/35/16
f 26/34/17 97/36/17 27/37/17
f 12/28/18 81/38/18 82/39/18
f 27/37/19 98/40/19 28/41/19
f 10/42/20 81/38/20 11/43/20
f 28/41/21 99/44/21 29/45/21
f 29/45/22 100/46/22 30/47/22
f 30/47/23 101/48/23 31/49/23
f 10/42/24 79/50/24 80/51/24
f 32/52/25 101/48/25 102/53/25
f 8/54/26 79/50/26 9/55/26
f 32/52/27 103/56/27 33/57/27
f 7/58/28 78/59/28 8/54/28
f 33/57/29 104/60/29 34/61/29
f 6/62/30 77/63/30 7/58/30
f 5/64/31 76/65/31 6/62/31
f 4/66/32 75/67/32 5/64/32
f 34/61/33 105/68/33 35/69/33
f 3/70/34 74/71/34 4/66/34
f 3/70/35 72/72/35 73/73/35
f 35/69/36 106/74/36 36/75/36
f 1/76/37 72/72/37 2/77/37
f 70/78/38 71/79/38 1/76/38
f 36/75/39 107/80/39 37/81/39
f 37/81/40 108/82/40 38/83/40
f 69/84/41 140/85/41 70/78/41
f 38/83/42 109/86/42 39/87/42
f 39/87/43 110/88/43 40/89/43
f 68/90/44 139/91/44 69/84/44
f 40/89/45 111/92/45 41/93/45
f 42/94/46 111/92/46 112/95/46
f 42/94/47 113/96/47 43/97/47
f 67/98/48 138/99/48 68/90/48
f 66/100/49 137/101/49 67/98/49
f 43/97/50 114/102/50 44/103/50
f 65/104/51 136/105/51 66/100/51
f 44/103/52 115/106/52 45/107/52
f 64/108/53 135/109/53 65/104/53
f 45/107/54 116/110/54 46/111/54
f 63/112/55 134/113/55 64/108/55
f 46/111/56 117/114/56 47/115/56
f 62/116/57 133/117/57 63/112/57
f 61/118/58 132/119/58 62/116/58
f 48/120/59 117/114/59 118/121/59
f 60/122/60 131/123/60 61/118/60
f 48/120/61 119/124/61 49/125/61
f 59/126/62 130/127/62 60/122/62
f 58/128/63 129/129/63 59/126/63
f 49/125/64 120/130/64 50/131/64
f 57/132/65 128/133/65 58/128/65
f 57/132/66 126/134/66 127/135/66
f 50/131/67 121/136/67 51/137/67
f 55/138/68 126/134/68 56/139/68
f 54/140/69 125/141/69 55/138/69
f 51/137/70 122/142/70 52/143/70
f 54/140/71 123/144/71 124/145/71
f 52/143/72 123/144/72 53/146/72
f 14/147/1 15/148/1 26/149/1
f 15/148/1 16/150/1 26/149/1
f 16/150/1 17/151/1 26/149/1
f 17/151/1 18/152/1 26/149/1
f 18/152/1 19/153/1 20/154/1
f 20/154/1 21/155/1 26/149/1
f 21/155/1 22/156/1 26/149/1
f 22/156/1 23/157/1 26/149/1
f 23/157/1 24/158/1 26/149/1
f 24/158/1 25/159/1 26/149/1
f 26/149/1 27/160/1 28/161/1
f 28/161/1 29/162/1 30/163/1
f 30/163/1 31/164/1 43/1/1
f 31/164/1 32/165/1 43/1/1
f 32/165/1 33/166/1 43/1/1
f 33/166/1 34/167/1 43/1/1
f 34/167/1 35/168/1 43/1/1
f 35/168/1 36/169/1 43/1/1
f 36/169/1 37/170/1 43/1/1
f 37/170/1 38/171/1 43/1/1
f 38/171/1 39/172/1 40/173/1
f 40/173/1 41/174/1 42/175/1
f 43/1/1 44/176/1 45/177/1
f 40/173/1 42/175/1 43/1/1
f 38/171/1 40/173/1 43/1/1
f 28/161/1 30/163/1 43/1/1
f 26/149/1 28/161/1 43/1/1
f 43/1/1 45/177/1 46/178/1
f 43/1/1 46/178/1 60/2/1
f 46/178/1 47/179/1 60/2/1
f 47/179/1 48/180/1 60/2/1
f 48/180/1 49/181/1 60/2/1
f 49/181/1 50/182/1 60/2/1
f 50/182/1 51/183/1 60/2/1
f 51/183/1 52/184/1 60/2/1
f 52/184/1 53/185/1 60/2/1
f 53/185/1 54/186/1 55/187/1
f 55/187/1 56/188/1 53/185/1
f 56/188/1 57/189/1 53/185/1
f 57/189/1 58/190/1 59/191/1
f 60/2/1 61/192/1 62/193/1
f 57/189/1 59/191/1 53/185/1
f 59/191/1 60/2/1 53/185/1
f 20/154/1 26/149/1 18/152/1
f 26/149/1 43/1/1 7/3/1
f 13/194/1 14/147/1 26/149/1
f 11/195/1 12/196/1 26/149/1
f 12/196/1 13/194/1 26/149/1
f 9/197/1 10/198/1 7/3/1
f 10/198/1 11/195/1 26/149/1
f 7/3/1 8/199/1 9/197/1
f 5/200/1 6/201/1 7/3/1
f 3/202/1 4/203/1 5/200/1
f 1/204/1 2/205/1 3/202/1
f 69/206/1 70/207/1 7/3/1
f 70/207/1 1/204/1 7/3/1
f 67/208/1 68/209/1 7/3/1
f 68/209/1 69/206/1 7/3/1
f 65/210/1 66/211/1 7/3/1
f 66/211/1 67/208/1 7/3/1
f 63/212/1 64/213/1 7/3/1
f 64/213/1 65/210/1 7/3/1
f 60/2/1 62/193/1 63/212/1
f 10/198/1 26/149/1 7/3/1
f 3/202/1 5/200/1 1/204/1
f 5/200/1 7/3/1 1/204/1
f 60/2/1 63/212/1 7/3/1
f 86/214/2 85/215/2 96/5/2
f 85/215/2 84/216/2 96/5/2
f 84/216/2 83/217/2 96/5/2
f 83/217/2 82/218/2 96/5/2
f 82/218/2 81/219/2 96/5/2
f 81/219/2 80/220/2 96/5/2
f 80/220/2 79/221/2 77/222/2
f 79/221/2 78/223/2 77/222/2
f 77/222/2 76/224/2 75/225/2
f 87/226/2 86/214/2 96/5/2
f 89/227/2 88/228/2 87/226/2
f 91/229/2 90/230/2 89/227/2
f 93/231/2 92/232/2 91/229/2
f 95/233/2 94/234/2 96/5/2
f 94/234/2 93/231/2 96/5/2
f 98/235/2 97/236/2 96/5/2
f 93/231/2 91/229/2 96/5/2
f 91/229/2 89/227/2 96/5/2
f 89/227/2 87/226/2 96/5/2
f 80/220/2 77/222/2 96/5/2
f 77/222/2 75/225/2 72/237/2
f 75/225/2 74/238/2 72/237/2
f 74/238/2 73/239/2 72/237/2
f 72/237/2 71/240/2 77/222/2
f 71/240/2 140/241/2 77/222/2
f 140/241/2 139/242/2 77/222/2
f 139/242/2 138/243/2 77/222/2
f 138/243/2 137/244/2 77/222/2
f 137/244/2 136/245/2 77/222/2
f 136/245/2 135/246/2 77/222/2
f 135/246/2 134/247/2 77/222/2
f 134/247/2 133/248/2 130/249/2
f 133/248/2 132/250/2 130/249/2
f 132/250/2 131/251/2 130/249/2
f 130/249/2 129/252/2 124/253/2
f 129/252/2 128/254/2 124/253/2
f 128/254/2 127/255/2 124/253/2
f 127/255/2 126/256/2 124/253/2
f 126/256/2 125/257/2 124/253/2
f 124/253/2 123/258/2 130/249/2
f 123/258/2 122/259/2 130/249/2
f 122/259/2 121/260/2 130/249/2
f 121/260/2 120/261/2 130/249/2
f 120/261/2 119/262/2 130/249/2
f 119/262/2 118/263/2 130/249/2
f 118/263/2 117/264/2 130/249/2
f 117/264/2 116/265/2 130/249/2
f 116/265/2 115/266/2 113/6/2
f 115/266/2 114/267/2 113/6/2
f 113/6/2 112/268/2 110/269/2
f 112/268/2 111/270/2 110/269/2
f 116/265/2 113/6/2 130/249/2
f 134/247/2 130/249/2 77/222/2
f 99/4/2 98/235/2 96/5/2
f 101/271/2 100/272/2 113/6/2
f 100/272/2 99/4/2 113/6/2
f 103/273/2 102/274/2 113/6/2
f 102/274/2 101/271/2 113/6/2
f 105/275/2 104/276/2 113/6/2
f 104/276/2 103/273/2 113/6/2
f 107/277/2 106/278/2 113/6/2
f 106/278/2 105/275/2 113/6/2
f 109/279/2 108/280/2 107/277/2
f 113/6/2 110/269/2 107/277/2
f 110/269/2 109/279/2 107/277/2
f 130/249/2 113/6/2 77/222/2
f 96/5/2 77/222/2 113/6/2
f 16/7/3 86/15/3 87/8/3
f 17/9/4 87/8/4 88/10/4
f 18/11/5 88/10/5 89/12/5
f 15/14/6 85/19/6 86/15/6
f 19/13/7 89/12/7 90/16/7
f 14/18/8 84/27/8 85/19/8
f 20/17/9 90/16/9 91/20/9
f 21/21/10 91/20/10 92/22/10
f 22/23/11 92/22/11 93/24/11
f 13/26/12 83/29/12 84/27/12
f 12/28/13 82/39/13 83/29/13
f 23/25/14 93/24/14 94/30/14
f 24/31/15 94/30/15 95/32/15
f 26/34/16 25/33/16 95/32/16
f 26/34/17 96/35/17 97/36/17
f 12/28/18 11/43/18 81/38/18
f 27/37/19 97/36/19 98/40/19
f 10/42/20 80/51/20 81/38/20
f 28/41/21 98/40/21 99/44/21
f 29/45/22 99/44/22 100/46/22
f 30/47/23 100/46/23 101/48/23
f 10/42/24 9/55/24 79/50/24
f 32/52/25 31/49/25 101/48/25
f 8/54/26 78/59/26 79/50/26
f 32/52/27 102/53/27 103/56/27
f 7/58/28 77/63/28 78/59/28
f 33/57/29 103/56/29 104/60/29
f 6/62/30 76/65/30 77/63/30
f 5/64/31 75/67/31 76/65/31
f 4/66/32 74/71/32 75/67/32
f 34/61/33 104/60/33 105/68/33
f 3/70/34 73/73/34 74/71/34
f 3/70/35 2/77/35 72/72/35
f 35/69/36 105/68/36 106/74/36
f 1/76/37 71/79/37 72/72/37
f 70/78/38 140/85/38 71/79/38
f 36/75/39 106/74/39 107/80/39
f 37/81/40 107/80/40 108/82/40
f 69/84/41 139/91/41 140/85/41
f 38/83/42 108/82/42 109/86/42
f 39/87/43 109/86/43 110/88/43
f 68/90/44 138/99/44 139/91/44
f 40/89/45 110/88/45 111/92/45
f 42/94/46 41/93/46 111/92/46
f 42/94/47 112/95/47 113/96/47
f 67/98/48 137/101/48 138/99/48
f 66/100/49 136/105/49 137/101/49
f 43/97/50 113/96/50 114/102/50
f 65/104/51 135/109/51 136/105/51
f 44/103/52 114/102/52 115/106/52
f 64/108/53 134/113/53 135/109/53
f 45/107/54 115/106/54 116/110/54
f 63/112/55 133/117/55 134/113/55
f 46/111/56 116/110/56 117/114/56
f 62/116/57 132/119/57 133/117/57
f 61/118/58 131/123/58 132/119/58
f 48/120/59 47/115/59 117/114/59
f 60/122/60 130/127/60 131/123/60
f 48/120/61 118/121/61 119/124/61
f 59/126/62 129/129/62 130/127/62
f 58/128/63 128/133/63 129/129/63
f 49/125/64 119/124/64 120/130/64
f 57/132/65 127/135/65 128/133/65
f 57/132/66 56/139/66 126/134/66
f 50/131/67 120/130/67 121/136/67
f 55/138/68 125/141/68 126/134/68
f 54/140/69 124/145/69 125/141/69
f 51/137/70 121/136/70 122/142/70
f 54/140/71 53/146/71 123/144/71
f 52/143/72 122/142/72 123/144/72
